# xmcd
#
# Track frame offsets: 
#        150
#        14290
#        29440
#        48795
#        65217
#        84785
#        100867
#        120450
#        139190
#        156737
#        173122
#        193862
#        210652
#        227255
#        245792
#        265485
#
# Disc length: 3802 seconds
#
# Revision: 2
# Processed by: cddbd v1.5.2PL0 Copyright (c) Steve Scherf et al.
# Submitted via: ExactAudioCopy v0.99pb5
#
DISCID=df0ed810
DTITLE=Yello - Essential
DYEAR=1992
DGENRE=Rock
TTITLE0=Oh Yeah
TTITLE1=The Race
TTITLE2=Drive/Driven
TTITLE3=Rubberbandman
TTITLE4=Vicious Games
TTITLE5=Tied Up
TTITLE6=Lost Again
TTITLE7=I Love You
TTITLE8=Of Course I'm Lying
TTITLE9=Pinball Cha Cha
TTITLE10=Bostich
TTITLE11=Desire
TTITLE12=Jungle Bill
TTITLE13=Call It Love
TTITLE14=Goldrush
TTITLE15=The Rhythm Divine
EXTD=
EXTT0=
EXTT1=
EXTT2=
EXTT3=
EXTT4=
EXTT5=
EXTT6=
EXTT7=
EXTT8=
EXTT9=
EXTT10=
EXTT11=
EXTT12=
EXTT13=
EXTT14=
EXTT15=
PLAYORDER=
